%TF.GenerationSoftware,KiCad,Pcbnew,6.99.0-unknown-e6dc28fb2e~146~ubuntu21.10.1*%
%TF.CreationDate,2022-01-20T00:26:21+01:00*%
%TF.ProjectId,LightBoxminiTM1637WS2812RTC,4c696768-7442-46f7-986d-696e69544d31,rev?*%
%TF.SameCoordinates,Original*%
%TF.FileFunction,Copper,L1,Top*%
%TF.FilePolarity,Positive*%
%FSLAX46Y46*%
G04 Gerber Fmt 4.6, Leading zero omitted, Abs format (unit mm)*
G04 Created by KiCad (PCBNEW 6.99.0-unknown-e6dc28fb2e~146~ubuntu21.10.1) date 2022-01-20 00:26:21*
%MOMM*%
%LPD*%
G01*
G04 APERTURE LIST*
%TA.AperFunction,NonConductor*%
%ADD10C,0.200000*%
%TD*%
%TA.AperFunction,ComponentPad*%
%ADD11R,2.500000X1.700000*%
%TD*%
%TA.AperFunction,ComponentPad*%
%ADD12R,1.700000X2.500000*%
%TD*%
%TA.AperFunction,ComponentPad*%
%ADD13R,1.400000X1.400000*%
%TD*%
%TA.AperFunction,ComponentPad*%
%ADD14R,2.250000X1.700000*%
%TD*%
%TA.AperFunction,ViaPad*%
%ADD15C,0.800000*%
%TD*%
%TA.AperFunction,Conductor*%
%ADD16C,1.000000*%
%TD*%
G04 APERTURE END LIST*
D10*
X31012000Y-60452000D02*
X34012000Y-60452000D01*
D11*
%TO.P,J13,1,Pin_1*%
%TO.N,Net-(J13-Pin_1)*%
X41300289Y-26822289D03*
%TD*%
%TO.P,J16,1,Pin_1*%
%TO.N,Net-(J1-Pin_3)*%
X41300289Y-19075289D03*
%TD*%
D12*
%TO.P,J6,1,Pin_1*%
%TO.N,Net-(J1-Pin_3)*%
X30226000Y-59436000D03*
%TD*%
D11*
%TO.P,J3,1,Pin_1*%
%TO.N,Net-(J1-Pin_3)*%
X43180000Y-90693000D03*
%TO.P,J3,2,Pin_2*%
%TO.N,Net-(J12-Pin_1)*%
X43180000Y-93233000D03*
%TO.P,J3,3,Pin_3*%
%TO.N,Net-(J1-Pin_4)*%
X43180000Y-95773000D03*
%TD*%
%TO.P,J4,1,Pin_1*%
%TO.N,Net-(J1-Pin_4)*%
X43180000Y-82042000D03*
%TO.P,J4,2,Pin_2*%
%TO.N,Net-(J4-Pin_2)*%
X43180000Y-84582000D03*
%TD*%
D12*
%TO.P,J15,1,Pin_1*%
%TO.N,Net-(J1-Pin_4)*%
X27686000Y-59436000D03*
%TD*%
D11*
%TO.P,J2,1,Pin_1*%
%TO.N,Net-(J1-Pin_4)*%
X41300289Y-24155289D03*
%TD*%
D13*
%TO.P,R1,1*%
%TO.N,Net-(J1-Pin_3)*%
X30734000Y-56134000D03*
%TO.P,R1,2*%
%TO.N,Net-(J4-Pin_2)*%
X38354000Y-56134000D03*
%TD*%
D11*
%TO.P,J10,1,Pin_1*%
%TO.N,Net-(J1-Pin_1)*%
X20556840Y-31800800D03*
%TD*%
D14*
%TO.P,J7,1,Pin_1*%
%TO.N,Net-(J14-Pin_1)*%
X41198800Y-29337000D03*
%TD*%
D11*
%TO.P,J11,1,Pin_1*%
%TO.N,Net-(J1-Pin_2)*%
X20556840Y-29260800D03*
%TD*%
%TO.P,J1,1,Pin_1*%
%TO.N,Net-(J1-Pin_1)*%
X43180000Y-62798800D03*
%TO.P,J1,2,Pin_2*%
%TO.N,Net-(J1-Pin_2)*%
X43180000Y-65338800D03*
%TO.P,J1,3,Pin_3*%
%TO.N,Net-(J1-Pin_3)*%
X43180000Y-67878800D03*
%TO.P,J1,4,Pin_4*%
%TO.N,Net-(J1-Pin_4)*%
X43180000Y-70418800D03*
%TD*%
D12*
%TO.P,J5,1,Pin_1*%
%TO.N,Net-(J1-Pin_3)*%
X43112040Y-14376400D03*
%TO.P,J5,2,Pin_2*%
%TO.N,Net-(J1-Pin_4)*%
X45652040Y-14376400D03*
%TD*%
D11*
%TO.P,J9,1,Pin_1*%
%TO.N,Net-(J4-Pin_2)*%
X20556840Y-39420800D03*
%TD*%
D12*
%TO.P,J14,1,Pin_1*%
%TO.N,Net-(J14-Pin_1)*%
X25019000Y-59436000D03*
%TD*%
D11*
%TO.P,J12,1,Pin_1*%
%TO.N,Net-(J12-Pin_1)*%
X20556840Y-26593800D03*
%TD*%
D12*
%TO.P,J8,1,Pin_1*%
%TO.N,Net-(J13-Pin_1)*%
X22479000Y-59436000D03*
%TD*%
D15*
%TO.N,Net-(J12-Pin_1)*%
X36558840Y-80568800D03*
X36558840Y-87680800D03*
%TO.N,Net-(J4-Pin_2)*%
X20556840Y-36118800D03*
X17000840Y-36118800D03*
%TO.N,Net-(J1-Pin_2)*%
X35052000Y-53086000D03*
X40386000Y-53086000D03*
%TO.N,Net-(J1-Pin_3)*%
X40386000Y-67868800D03*
X44382040Y-25958800D03*
X34818360Y-67906320D03*
X34780840Y-57962800D03*
X44382040Y-22148800D03*
X44051840Y-57962800D03*
%TO.N,Net-(J1-Pin_4)*%
X26162000Y-50546000D03*
X45702840Y-50546000D03*
X40386000Y-50546000D03*
X26162000Y-55626000D03*
%TO.N,Net-(J14-Pin_1)*%
X24638000Y-46736000D03*
X24638000Y-55626000D03*
%TO.N,Net-(J13-Pin_1)*%
X22860000Y-55626000D03*
X22860000Y-47980600D03*
%TD*%
D16*
%TO.N,Net-(J1-Pin_3)*%
X30226000Y-59436000D02*
X30226000Y-56642000D01*
X30226000Y-56642000D02*
X30734000Y-56134000D01*
%TO.N,Net-(J1-Pin_4)*%
X40386000Y-50546000D02*
X26162000Y-50546000D01*
%TO.N,Net-(J1-Pin_1)*%
X18270840Y-34086800D02*
X20556840Y-31800800D01*
X22250400Y-49276000D02*
X18270840Y-45296440D01*
X42418000Y-62036800D02*
X42418000Y-49276000D01*
X42310680Y-49276000D02*
X22250400Y-49276000D01*
X43180000Y-62798800D02*
X42418000Y-62036800D01*
X18270840Y-45296440D02*
X18270840Y-34086800D01*
%TO.N,Net-(J12-Pin_1)*%
X36558840Y-89390840D02*
X40401000Y-93233000D01*
X14478000Y-30822640D02*
X18706840Y-26593800D01*
X17018000Y-54356000D02*
X14478000Y-51816000D01*
X36558840Y-80568800D02*
X36558840Y-54356000D01*
X40401000Y-93233000D02*
X43180000Y-93233000D01*
X36558840Y-54356000D02*
X17018000Y-54356000D01*
X36558840Y-87680800D02*
X36558840Y-89390840D01*
X14478000Y-51816000D02*
X14478000Y-30822640D01*
X18706840Y-26593800D02*
X20556840Y-26593800D01*
%TO.N,Net-(J4-Pin_2)*%
X38354000Y-51816000D02*
X38354000Y-80715022D01*
X38354000Y-80715022D02*
X42220978Y-84582000D01*
X42220978Y-84582000D02*
X43180000Y-84582000D01*
X18474040Y-51816000D02*
X38354000Y-51816000D01*
X17000840Y-50342800D02*
X18474040Y-51816000D01*
X20556840Y-39420800D02*
X20556840Y-36118800D01*
X17000840Y-36118800D02*
X17000840Y-50342800D01*
%TO.N,Net-(J1-Pin_2)*%
X40386000Y-53086000D02*
X40386000Y-65278000D01*
X40446800Y-65338800D02*
X43180000Y-65338800D01*
X40386000Y-65278000D02*
X40446800Y-65338800D01*
X15730840Y-32236800D02*
X18706840Y-29260800D01*
X15730840Y-51036840D02*
X15730840Y-32236800D01*
X17780000Y-53086000D02*
X15730840Y-51036840D01*
X18706840Y-29260800D02*
X20556840Y-29260800D01*
X35052000Y-53086000D02*
X17780000Y-53086000D01*
%TO.N,Net-(J1-Pin_3)*%
X41511840Y-19100800D02*
X44229640Y-19100800D01*
X34780840Y-57962800D02*
X31699200Y-57962800D01*
X43112040Y-17322800D02*
X43112040Y-14376400D01*
X43180000Y-67878800D02*
X40396000Y-67878800D01*
X44051840Y-49758600D02*
X44051840Y-57962800D01*
X34818360Y-58000320D02*
X34818360Y-59957280D01*
X44382040Y-25958800D02*
X44382040Y-49428400D01*
X31699200Y-57962800D02*
X30226000Y-59436000D01*
X44382040Y-22148800D02*
X44382040Y-19253200D01*
X44382040Y-49428400D02*
X44051840Y-49758600D01*
X40396000Y-67878800D02*
X40386000Y-67868800D01*
X34818360Y-83034320D02*
X34818360Y-67906320D01*
X43180000Y-90693000D02*
X42477040Y-90693000D01*
X42477040Y-90693000D02*
X34818360Y-83034320D01*
X44382040Y-18592800D02*
X43112040Y-17322800D01*
X34780840Y-57962800D02*
X34818360Y-58000320D01*
X44382040Y-19253200D02*
X44382040Y-18592800D01*
X34818360Y-67906320D02*
X34818360Y-59957280D01*
X44229640Y-19100800D02*
X44382040Y-19253200D01*
%TO.N,Net-(J1-Pin_4)*%
X43180000Y-82042000D02*
X43261200Y-81960800D01*
X45652040Y-14376400D02*
X45702840Y-14427200D01*
X43261200Y-81960800D02*
X45720000Y-81960800D01*
X45702840Y-14427200D02*
X45702840Y-24434800D01*
X45720000Y-95823800D02*
X43230800Y-95823800D01*
X45720000Y-70418800D02*
X43180000Y-70418800D01*
X43230800Y-95823800D02*
X43180000Y-95773000D01*
X26162000Y-55626000D02*
X27686000Y-57150000D01*
X45448840Y-24180800D02*
X45702840Y-24434800D01*
X27686000Y-57150000D02*
X27686000Y-59436000D01*
X45702840Y-24434800D02*
X45702840Y-95740840D01*
X45702840Y-95740840D02*
X45720000Y-95758000D01*
X41511840Y-24180800D02*
X45448840Y-24180800D01*
%TO.N,Net-(J14-Pin_1)*%
X24638000Y-55626000D02*
X24638000Y-59055000D01*
X24638000Y-59055000D02*
X25019000Y-59436000D01*
X24638000Y-46736000D02*
X41257840Y-46736000D01*
X41511840Y-46482000D02*
X41511840Y-29387800D01*
X41257840Y-46736000D02*
X41511840Y-46482000D01*
%TO.N,Net-(J13-Pin_1)*%
X22865720Y-47986320D02*
X43041560Y-47986320D01*
X22860000Y-47980600D02*
X22865720Y-47986320D01*
X43061240Y-27825418D02*
X42058111Y-26822289D01*
X41859311Y-26822289D02*
X41300289Y-26822289D01*
X42134311Y-26822289D02*
X41300289Y-26822289D01*
X43061240Y-47955200D02*
X43061240Y-27825418D01*
X22860000Y-55626000D02*
X22860000Y-59055000D01*
X22860000Y-59055000D02*
X22479000Y-59436000D01*
X42058111Y-26822289D02*
X41300289Y-26822289D01*
%TD*%
M02*
