M48
; DRILL file {KiCad 6.99.0-unknown-e6dc28fb2e~146~ubuntu21.10.1} date gio 20 gen 2022, 00:26:23
; FORMAT={-:-/ absolute / inch / decimal}
; #@! TF.CreationDate,2022-01-20T00:26:23+01:00
; #@! TF.GenerationSoftware,Kicad,Pcbnew,6.99.0-unknown-e6dc28fb2e~146~ubuntu21.10.1
; #@! TF.FileFunction,Plated,1,2,PTH
FMAT,2
INCH
; #@! TA.AperFunction,Plated,PTH,ViaDrill
T1C0.0157
; #@! TA.AperFunction,Plated,PTH,ComponentDrill
T2C0.0197
%
G90
G05
T1
X0.6693Y-1.422
X0.8093Y-1.422
X0.9Y-1.889
X0.9Y-2.19
X0.97Y-1.84
X0.97Y-2.19
X1.03Y-1.99
X1.03Y-2.19
X1.3693Y-2.282
X1.3708Y-2.6735
X1.38Y-2.09
X1.4393Y-3.172
X1.4393Y-3.452
X1.59Y-1.99
X1.59Y-2.09
X1.59Y-2.672
X1.7343Y-2.282
X1.7473Y-0.872
X1.7473Y-1.022
X1.7993Y-1.99
T2
X0.8093Y-1.047
X0.8093Y-1.152
X0.8093Y-1.252
X0.8093Y-1.552
X0.885Y-2.34
X0.985Y-2.34
X1.09Y-2.34
X1.19Y-2.34
X1.21Y-2.21
X1.51Y-2.21
X1.622Y-1.155
X1.626Y-0.751
X1.626Y-0.951
X1.626Y-1.056
X1.6973Y-0.566
X1.7Y-2.4724
X1.7Y-2.5724
X1.7Y-2.6724
X1.7Y-2.7724
X1.7Y-3.23
X1.7Y-3.33
X1.7Y-3.5706
X1.7Y-3.6706
X1.7Y-3.7706
X1.7973Y-0.566
T0
M30
